<?xml version="1.0" encoding="utf-8"?>
<!-- Generator: Adobe Illustrator 25.0.1, SVG Export Plug-In . SVG Version: 6.00 Build 0)  -->
<svg version="1.1" id="Camada_1" xmlns="http://www.w3.org/2000/svg" xmlns:xlink="http://www.w3.org/1999/xlink" x="0px" y="0px"
	 viewBox="0 0 74 32" style="enable-background:new 0 0 74 32;" xml:space="preserve">
<style type="text/css">
	.st0{clip-path:url(#SVGID_2_);}
	.st1{fill:#0F1418;}
	.st2{fill:#035BDA;}
	.st3{fill:url(#SVGID_3_);}
	.st4{fill:url(#SVGID_4_);}
	.st5{fill:url(#SVGID_5_);}
	.st6{fill:#FFFFFF;}
	.st7{fill:url(#SVGID_6_);}
</style>
<g>
	<defs>
		<rect id="SVGID_1_" width="74" height="32"/>
	</defs>
	<clipPath id="SVGID_2_">
		<use xlink:href="#SVGID_1_"  style="overflow:visible;"/>
	</clipPath>
	<g class="st0">
		<path class="st1" d="M69,0H31v32h38c2.8,0,5-2.2,5-5V5C74,2.2,71.8,0,69,0z"/>
		<path class="st2" d="M31,0H5C2.2,0,0,2.2,0,5v22c0,2.8,2.2,5,5,5h26V0z"/>
		
			<linearGradient id="SVGID_3_" gradientUnits="userSpaceOnUse" x1="18.5885" y1="22.3105" x2="27.52" y2="10.621" gradientTransform="matrix(1 0 0 -1 0 34)">
			<stop  offset="0" style="stop-color:#3B009B"/>
			<stop  offset="1" style="stop-color:#390086"/>
		</linearGradient>
		<path class="st3" d="M31,6H12v19h19V6z"/>
		
			<linearGradient id="SVGID_4_" gradientUnits="userSpaceOnUse" x1="9.6439" y1="14.8929" x2="17.6122" y2="4.4631" gradientTransform="matrix(1 0 0 -1 0 34)">
			<stop  offset="0" style="stop-color:#340084"/>
			<stop  offset="1" style="stop-color:#290064"/>
		</linearGradient>
		<path class="st4" d="M31,24.6L10.5,13H0v14.2c0,2.8,2.2,5,5,5h26V24.6z"/>
		
			<linearGradient id="SVGID_5_" gradientUnits="userSpaceOnUse" x1="9.1825" y1="30.0376" x2="17.3378" y2="19.363" gradientTransform="matrix(1 0 0 -1 0 34)">
			<stop  offset="0" style="stop-color:#A47EDE"/>
			<stop  offset="1" style="stop-color:#9866D3"/>
		</linearGradient>
		<path class="st5" d="M0,24.5L31,6.9V0H5C2.2,0,0,2.2,0,5V24.5z"/>
		<path class="st6" d="M6.6,15.9C6.6,7.3,18,3.5,23,11.5l-3.8,2.2c-2.3-3.8-8-2.4-8.2,2.2c0.1,4.3,5.7,6.2,8.2,2.2l3.8,2.2
			C18.6,27.9,6.8,25.1,6.6,15.9z"/>
		<path class="st6" d="M21.1,13.4h0.7l-0.5,4.8h-0.7L21.1,13.4z"/>
		<path class="st6" d="M22.6,13.4h0.7l-0.5,4.8h-0.7L22.6,13.4z"/>
		<path class="st6" d="M23.9,14.5h-3.6v0.7h3.6V14.5z"/>
		<path class="st6" d="M23.7,16.2h-3.6v0.7h3.6V16.2z"/>
		<path class="st6" d="M51.5,21.6c-0.8,0.4-1.8,0.6-3,0.6c-1.6,0-2.9-0.5-3.8-1.4c-0.9-0.9-1.4-2.2-1.4-3.8c0-1.7,0.5-3,1.6-4.1
			c1-1,2.4-1.6,4-1.6c1,0,1.9,0.1,2.6,0.4V14c-0.7-0.4-1.5-0.6-2.4-0.6c-1,0-1.8,0.3-2.4,0.9c-0.6,0.6-0.9,1.5-0.9,2.5
			c0,1,0.3,1.8,0.9,2.4c0.6,0.6,1.3,0.9,2.3,0.9c0.9,0,1.8-0.2,2.5-0.7V21.6z M61.2,14.2l-0.3,1.3h-1.4l-0.4,1.8h1.5l-0.3,1.3h-1.5
			l-0.6,2.5h-1.5l0.5-2.5h-1.7l-0.5,2.5h-1.5l0.5-2.5h-1.4l0.3-1.3h1.4l0.4-1.8h-1.5l0.2-1.3h1.5l0.5-2.6h1.5l-0.5,2.6h1.7l0.6-2.6
			h1.5l-0.5,2.6H61.2z M58.1,15.5h-1.7L56,17.3h1.7L58.1,15.5z"/>
		
			<linearGradient id="SVGID_6_" gradientUnits="userSpaceOnUse" x1="37" y1="34" x2="37" y2="2" gradientTransform="matrix(1 0 0 -1 0 34)">
			<stop  offset="0" style="stop-color:#BBBBBB;stop-opacity:0.1"/>
			<stop  offset="1" style="stop-color:#000000;stop-opacity:0.1"/>
		</linearGradient>
		<path class="st7" d="M69,0H5C2.2,0,0,2.2,0,5v22c0,2.8,2.2,5,5,5h64c2.8,0,5-2.2,5-5V5C74,2.2,71.8,0,69,0z"/>
	</g>
</g>
<image style="overflow:visible;" width="308" height="133" xlink:href="icones/c++.png"  transform="matrix(0.24 0 0 0.24 3.999853e-02 3.999937e-02)">
</image>
<image style="overflow:visible;" width="308" height="133" xlink:href="icones/c.png"  transform="matrix(0.24 0 0 0.24 3.999853e-02 3.999937e-02)">
</image>
</svg>
