<?xml version="1.0" encoding="utf-8"?>
<!-- Generator: Adobe Illustrator 25.0.1, SVG Export Plug-In . SVG Version: 6.00 Build 0)  -->
<svg version="1.1" id="Camada_1" xmlns="http://www.w3.org/2000/svg" xmlns:xlink="http://www.w3.org/1999/xlink" x="0px" y="0px"
	 viewBox="0 0 93 32" style="enable-background:new 0 0 93 32;" xml:space="preserve">
<style type="text/css">
	.st0{fill:#0F1418;}
	.st1{fill:#4CAD33;}
	.st2{fill:url(#SVGID_1_);}
	.st3{fill:#FFFFFF;}
	.st4{font-family:'ArialMT';}
	.st5{font-size:14.7976px;}
	.st6{fill:#2E7C32;}
	.st7{fill:#EBEEF0;}
	.st8{fill:#388D3C;}
	.st9{fill:#297A2D;}
	.st10{fill:#248328;}
	.st11{fill:#F9F9F9;}
	.st12{fill:#388E3C;}
	.st13{fill:#FBF8FE;}
	.st14{fill:#29792D;}
	.st15{fill:#549359;}
	.st16{fill:#2B862F;}
	.st17{fill:#3E9042;}
	.st18{fill:#308934;}
	.st19{fill:#248228;}
	.st20{fill:#237628;}
	.st21{fill:#1D7222;}
	.st22{fill:#1D7221;}
	.st23{fill:#E7ECEB;}
	.st24{fill:#E6EBEB;}
	.st25{fill:#F3F2F8;}
	.st26{fill:#FBF7FB;}
	.st27{fill:#C8DCCD;}
	.st28{fill:#FCF7FE;}
	.st29{fill:#F4F3F8;}
	.st30{fill:#70AC74;}
	.st31{fill:#F5F4FA;}
	.st32{fill:#9DC4A2;}
	.st33{fill:#F9F6FA;}
	.st34{fill:#9DC5A2;}
	.st35{fill:#FAF6FD;}
	.st36{fill:#FBF7FE;}
	.st37{fill:#FBF7FD;}
	.st38{fill:#2B872F;}
</style>
<path class="st0" d="M88,0H31v32h57c2.8,0,5-2.2,5-5V5C93,2.2,90.8,0,88,0z"/>
<path class="st1" d="M31,0H5C2.2,0,0,2.2,0,5v22c0,2.8,2.2,5,5,5h26V0z"/>
<g>
	
		<linearGradient id="SVGID_1_" gradientUnits="userSpaceOnUse" x1="46.5" y1="758" x2="46.5" y2="790" gradientTransform="matrix(1 0 0 1 0 -758)">
		<stop  offset="0" style="stop-color:#BBBBBB;stop-opacity:0.1"/>
		<stop  offset="1" style="stop-color:#000000;stop-opacity:0.1"/>
	</linearGradient>
	<path class="st2" d="M88,0H5C2.2,0,0,2.2,0,5v22c0,2.8,2.2,5,5,5h83c2.8,0,5-2.2,5-5V5C93,2.2,90.8,0,88,0z"/>
</g>
<text transform="matrix(1.1155 0 0 1 43.8086 20.6836)" class="st3 st4 st5">Excel</text>
<image style="overflow:visible;enable-background:new    ;" width="610" height="572" xlink:href="FBE9FBE0.jpg"  transform="matrix(0.9999 0 0 0.9999 -7886 -7796)">
</image>
<path class="st6" d="M16.1,24.6c0,0.8,0,1.5,0,2.3c0,0.4-0.4,0.8-0.9,0.7c-1.3-0.2-2.5-0.5-3.8-0.7c-1.4-0.3-2.7-0.5-4.1-0.8
	c-1.2-0.2-2.4-0.5-3.6-0.7c-0.1,0-0.2,0-0.3-0.1c-0.5-0.1-0.7-0.4-0.7-0.9c0-4.1,0-8.3,0-12.4c0-1.2,0-2.5,0-3.7
	c0-0.5,0.2-0.8,0.7-0.9C4.7,7.2,6,6.9,7.3,6.7C8.6,6.5,9.8,6.2,11.1,6c1.3-0.2,2.6-0.5,3.9-0.7c0.3-0.1,0.6-0.1,0.9,0.2
	c0.1,0.1,0.2,0.3,0.2,0.5c0,0.8,0,1.5,0,2.3c0,0.1,0,0.1,0,0.2c0,0.9,0,1.7,0,2.6c0,0.1,0,0.1,0,0.2c0,0,0,0,0,0.1
	c0,0.4,0,0.8,0,1.3c0,0,0,0,0,0.1c0,0,0,0,0,0.1c0,0,0,0,0,0.1c0,0.1,0,0.1,0,0.2c0,0.4,0,0.7,0,1.1c0,0.1,0,0.1,0,0.2
	c0,0,0,0.1,0,0.1c0,0.4,0,0.8,0,1.3c0,0,0,0,0,0.1c0,0,0,0,0,0.1c0,0.5,0,0.9,0,1.4c0,0,0,0,0,0.1c0,0,0,0,0,0.1c0,0.4,0,0.9,0,1.3
	c0,0,0,0.1,0,0.1c0,0,0,0.1,0,0.1c0,0.4,0,0.8,0,1.3c0,0,0,0,0,0.1c0,0,0,0,0,0.1c0,0,0,0,0,0.1c0,0,0,0,0,0.1c0,0.4,0,0.8,0,1.3
	c0,0,0,0,0,0.1c-0.1,0.1,0,0.1,0,0.2c0,0.9,0,1.8,0,2.6C16.1,24.5,16.1,24.5,16.1,24.6z"/>
<path class="st7" d="M18.6,11.2C18.6,11.2,18.6,11.2,18.6,11.2c0-0.1-0.1-0.1-0.2-0.1c-0.7,0-1.3,0-2,0c-0.2,0-0.2-0.1-0.2-0.2
	c0-0.8,0-1.6,0-2.3c0-0.2,0.1-0.2,0.2-0.2c3.1,0,6.1,0,9.2,0c0.1,0,0.2,0,0.3,0c0.4,0.2,0.5,0.3,0.5,0.8c0,4.9,0,9.8,0,14.6
	c0,0.3-0.1,0.4-0.3,0.6c-0.1,0.1-0.3,0.1-0.5,0.1c-1.3,0-2.6,0-3.9,0c-1.8,0-3.6,0-5.4,0c-0.2,0-0.2,0-0.2-0.2c0-0.8,0-1.6,0-2.3
	c0-0.2,0.1-0.2,0.2-0.2c0.6,0,1.3,0,1.9,0c0.1,0,0.2,0,0.2-0.1c0-0.1,0,0,0-0.1c0-0.1,0.1-0.1,0.1-0.1c0.3-0.2,0.4-0.5,0.3-0.8
	c-0.1-0.3-0.4-0.5-0.7-0.5c-0.6,0-1.3,0-1.9,0c-0.1,0-0.2,0-0.3-0.1c-0.1-0.1,0-0.2,0-0.4c0-0.3,0-0.5,0-0.8c0-0.3,0-0.4,0.3-0.4
	c0.6,0,1.2,0,1.9,0c0.1,0,0.2,0,0.3-0.1c0.1-0.1,0.3-0.2,0.4-0.3c0.2-0.5-0.1-1-0.6-1c-0.6,0-1.3,0-1.9,0c-0.1,0-0.2,0-0.3-0.1
	c0-0.5,0-1,0-1.5c0.1-0.1,0.2,0,0.3-0.1c0.7,0,1.3,0,2,0c0.3-0.1,0.5-0.2,0.5-0.5c0.1-0.3,0-0.6-0.3-0.8c0,0-0.1,0-0.1-0.1
	c-0.1,0-0.2,0-0.3,0c-0.6,0-1.3,0-1.9,0c-0.3,0-0.3,0-0.3-0.3c0-0.4,0-0.8,0-1.2c0.1-0.1,0.2-0.1,0.3-0.1c0.6,0,1.3,0,1.9,0
	c0.3,0,0.5-0.1,0.6-0.4c0.1-0.2,0.1-0.5,0-0.7c-0.1-0.1-0.1-0.1-0.2-0.2C18.6,11.3,18.6,11.3,18.6,11.2z"/>
<path class="st8" d="M18.6,11.2c0.5,0.2,0.6,0.6,0.5,1c-0.1,0.3-0.4,0.5-0.7,0.5c-0.7,0-1.5,0-2.2,0c0,0,0,0,0,0c0,0,0,0,0,0
	c0,0,0,0,0,0c0.1-0.1,0.1,0,0.2,0c0.6,0,1.3,0,1.9,0c-0.7,0-1.3,0-2,0c-0.1,0-0.1,0-0.2,0c0-0.4,0-0.9,0-1.3c0.1,0,0.2,0,0.2,0
	c0.6,0,1.2,0,1.8,0c0.1,0,0.1,0,0.2,0C18.4,11.2,18.5,11.2,18.6,11.2z"/>
<path class="st8" d="M16.1,20.1c0.7,0,1.4,0,2.1,0c0.5,0,0.9,0.4,0.8,0.8c0,0.3-0.2,0.5-0.5,0.6c-0.1,0-0.1,0-0.2,0
	c-0.1,0-0.1,0-0.2,0c-0.6,0-1.3,0-1.9,0c-0.1,0-0.1,0-0.2,0c0-0.4,0-0.9,0-1.3c0.1-0.1,0.2,0,0.2,0c0.6,0,1.2,0,1.9,0
	c-0.6,0-1.3,0-1.9,0C16.2,20.2,16.2,20.2,16.1,20.1C16.1,20.1,16.1,20.1,16.1,20.1C16.1,20.1,16.1,20.1,16.1,20.1
	C16.1,20.1,16.1,20.1,16.1,20.1z"/>
<path class="st9" d="M16.1,11.2C16,11.2,16,11.1,16,11c0-0.9,0-1.8,0-2.7c0-0.1,0-0.1,0.1-0.1c0,0.9,0,1.9,0,2.8
	C16.1,11,16.1,11.1,16.1,11.2C16.1,11.2,16.1,11.2,16.1,11.2z"/>
<path class="st9" d="M16.1,24.6c-0.1,0-0.1-0.1-0.1-0.2c0-0.9,0-1.8,0-2.7c0-0.1,0-0.2,0.1-0.2c0,0,0,0,0,0c-0.1,0.1,0,0.1,0,0.2
	C16.1,22.7,16.1,23.7,16.1,24.6z"/>
<path class="st10" d="M16.1,21.6C16.1,21.6,16.1,21.6,16.1,21.6C16.1,21.6,16.1,21.5,16.1,21.6c0.6,0,1.3,0,2,0c0.1,0,0.1,0,0.2,0
	C17.6,21.6,16.9,21.6,16.1,21.6z"/>
<path class="st10" d="M16.1,11.2C16.1,11.2,16.1,11.2,16.1,11.2c0.8,0,1.5,0,2.3,0c-0.1,0.1-0.1,0-0.2,0
	C17.5,11.2,16.8,11.2,16.1,11.2C16.1,11.2,16.1,11.2,16.1,11.2z"/>
<path class="st11" d="M12.4,20.1c-0.3,0-0.5-0.1-0.6-0.3c-0.6-0.7-1.2-1.3-1.8-2c-0.1-0.1-0.2-0.2-0.2-0.3c-0.1-0.1-0.1-0.1-0.2,0
	C9,18.2,8.4,19,7.8,19.7c-0.3,0.3-0.6,0.4-0.9,0.3c-0.5-0.2-0.6-0.7-0.3-1.2c0.3-0.4,0.7-0.8,1-1.3c0.3-0.4,0.7-0.8,1-1.3
	c0.1-0.1,0.1-0.2,0-0.2c-0.6-0.7-1.3-1.4-1.9-2.2c-0.4-0.5-0.2-1.1,0.3-1.3c0.3-0.1,0.6,0,0.8,0.3c0.5,0.6,1,1.1,1.4,1.6
	C9.3,14.7,9.4,15,9.6,15c0.1,0,0.2-0.2,0.3-0.4c0.6-0.8,1.2-1.6,1.8-2.3c0.2-0.3,0.5-0.4,0.8-0.3c0.3,0.1,0.5,0.3,0.6,0.6
	c0.1,0.3,0,0.5-0.2,0.7c-0.5,0.7-1.1,1.4-1.6,2c-0.2,0.3-0.4,0.5-0.6,0.8c-0.1,0.1-0.1,0.2,0,0.3c0.7,0.8,1.5,1.7,2.2,2.5
	c0.3,0.4,0.3,0.8,0,1.1C12.8,20,12.6,20.1,12.4,20.1z"/>
<path class="st12" d="M16.2,17.1c0.7,0,1.4,0,2.1,0c0.6,0,0.9,0.6,0.7,1.1c-0.1,0.1-0.2,0.2-0.3,0.3c-0.1,0.1-0.2,0.1-0.3,0.1
	c-0.7,0-1.3,0-2,0c-0.1,0-0.2,0-0.2-0.1C16.1,18.1,16.1,17.6,16.2,17.1c0,0,0.1,0.1,0.1,0.1c0.7,0,1.4,0,2.1,0c-0.7,0-1.4,0-2.1,0
	C16.2,17.2,16.2,17.2,16.2,17.1C16.1,17.1,16.1,17.1,16.2,17.1C16.1,17.1,16.2,17.1,16.2,17.1z"/>
<path class="st12" d="M18.6,14.2c0.4,0.3,0.5,0.6,0.4,0.9c-0.1,0.2-0.3,0.4-0.5,0.5c0,0-0.1,0-0.1,0c-0.7,0-1.4,0-2,0
	c-0.1,0-0.2,0-0.2,0c0-0.4,0-0.9,0-1.3c0.1-0.1,0.2-0.1,0.2-0.1c0.7,0,1.3,0,2,0C18.4,14.1,18.5,14.1,18.6,14.2z"/>
<path class="st9" d="M16.1,20.1C16,20.1,16,20,16,20c0-0.4,0-0.8,0-1.2c0-0.1,0-0.1,0.1-0.1c0,0,0,0,0,0
	C16.1,19.1,16.1,19.6,16.1,20.1L16.1,20.1z"/>
<path class="st13" d="M16.2,17.1C16.2,17.1,16.1,17.1,16.2,17.1c-0.1-0.5-0.1-1-0.1-1.5c0,0,0,0,0.1,0
	C16.2,16.1,16.2,16.6,16.2,17.1z"/>
<path class="st14" d="M16.1,14.2C16,14.1,16,14.1,16,14c0-0.4,0-0.8,0-1.3c0-0.1,0-0.1,0.1-0.1c0,0,0,0,0,0
	C16.1,13.2,16.1,13.6,16.1,14.2C16.1,14.1,16.1,14.1,16.1,14.2z"/>
<path class="st15" d="M16.2,15.6C16.2,15.6,16.1,15.6,16.2,15.6C16.1,15.6,16.1,15.6,16.2,15.6C16.1,15.6,16.1,15.6,16.2,15.6
	c0.7-0.1,1.5-0.1,2.2-0.1c0,0,0.1,0,0.1,0c-0.1,0.1-0.2,0-0.3,0C17.6,15.6,16.9,15.6,16.2,15.6z"/>
<path class="st16" d="M16.1,17.2c0.8,0,1.5,0,2.3,0c0,0,0,0,0,0C17.6,17.2,16.9,17.2,16.1,17.2C16.1,17.2,16.1,17.2,16.1,17.2z"/>
<path class="st17" d="M18.4,20.2c0,0.1-0.1,0-0.2,0c-0.7,0-1.4,0-2.1,0c0,0,0,0,0,0c0.1,0,0.1,0,0.2,0c0.6,0,1.2,0,1.9,0
	C18.2,20.1,18.3,20.1,18.4,20.2z"/>
<path class="st16" d="M18.4,15.6c-0.8,0-1.5,0-2.3,0c0,0,0,0,0,0c0.7,0,1.4,0,2.1,0C18.3,15.6,18.3,15.5,18.4,15.6z"/>
<path class="st18" d="M18.3,14.2c-0.1,0.1-0.1,0-0.2,0c-0.6,0-1.2,0-1.8,0c-0.1,0-0.2,0-0.2,0c0,0,0-0.1,0-0.1c0,0,0,0,0,0
	C16.8,14.1,17.6,14.1,18.3,14.2z"/>
<path class="st19" d="M18.4,12.6c-0.1,0.1-0.1,0-0.2,0c-0.7,0-1.4,0-2.1,0c0,0,0,0,0,0c0.1,0,0.2,0,0.3,0c0.6,0,1.2,0,1.8,0
	C18.2,12.6,18.3,12.6,18.4,12.6z"/>
<path class="st10" d="M18.4,20.2c-0.8,0-1.5,0-2.3,0c0,0,0,0,0,0c0.7,0,1.4,0,2.1,0C18.2,20.1,18.3,20.1,18.4,20.2z"/>
<path class="st18" d="M16.1,18.5c0.1,0,0.2,0,0.2,0c0.6,0,1.2,0,1.8,0c0.1,0,0.1,0,0.2,0c0,0,0,0,0,0C17.6,18.6,16.8,18.6,16.1,18.5
	C16.1,18.6,16.1,18.6,16.1,18.5C16.1,18.6,16.1,18.6,16.1,18.5z"/>
<path class="st17" d="M18.4,12.6c-0.8,0-1.5,0-2.3,0c0,0,0,0,0,0c0.7,0,1.4,0,2.1,0C18.2,12.5,18.3,12.5,18.4,12.6z"/>
<path class="st20" d="M7,12.6c0.1,0,0.2,0,0.3,0c0,0,0,0,0,0C7.2,12.6,7.1,12.6,7,12.6C7,12.6,7,12.6,7,12.6z"/>
<path class="st21" d="M12.5,20.2c-0.1,0-0.2,0-0.3,0c0,0,0,0,0,0C12.3,20.1,12.4,20.1,12.5,20.2C12.5,20.1,12.5,20.2,12.5,20.2z"/>
<path class="st22" d="M7.1,20.1c0.1,0,0.1,0,0.2,0c0,0,0,0,0,0C7.2,20.2,7.1,20.2,7.1,20.1C7.1,20.1,7.1,20.1,7.1,20.1z"/>
<path class="st8" d="M23,14.2c0.5,0.2,0.7,0.6,0.5,1c-0.1,0.3-0.4,0.4-0.7,0.4c-0.5,0-1,0-1.5,0c-0.4,0-0.7-0.3-0.7-0.6
	c-0.1-0.4,0.2-0.7,0.5-0.8c0,0,0,0,0.1,0c0,0,0.1,0,0.1,0c0.5,0,1,0,1.5,0C22.9,14.1,22.9,14.1,23,14.2z"/>
<path class="st8" d="M21.1,18.6c-0.5-0.2-0.7-0.5-0.5-0.9c0.1-0.3,0.4-0.5,0.7-0.5c0.5,0,1,0,1.5,0c0.4,0,0.7,0.3,0.7,0.6
	c0.1,0.3-0.2,0.7-0.5,0.8c0,0,0,0-0.1,0c0,0-0.1,0-0.2,0c-0.5,0-1,0-1.5,0C21.3,18.6,21.2,18.7,21.1,18.6z"/>
<path class="st8" d="M23,20.1c0.3,0.1,0.6,0.4,0.6,0.7c0,0.3-0.2,0.6-0.6,0.8c0,0-0.1,0-0.1,0c-0.5,0-1,0-1.5,0c-0.1,0-0.1,0-0.2,0
	c-0.4-0.1-0.6-0.4-0.6-0.7c0-0.3,0.2-0.6,0.6-0.7c0,0,0.1,0,0.2,0c0,0,0,0,0.1,0c0.5,0,1,0,1.4,0c0,0,0,0,0.1,0
	C22.9,20.1,22.9,20.1,23,20.1z"/>
<path class="st8" d="M23,11.2c0.4,0.1,0.6,0.4,0.6,0.8c0,0.3-0.2,0.6-0.6,0.7c0,0-0.1,0-0.1,0c0,0,0,0-0.1,0c-0.5,0-1,0-1.5,0
	c0,0,0,0-0.1,0c0,0-0.1,0-0.1,0c-0.4-0.1-0.6-0.4-0.6-0.7c0-0.4,0.2-0.6,0.6-0.7c0,0,0.1,0,0.1,0c0.5,0,1,0,1.5,0
	C22.9,11.1,22.9,11.1,23,11.2z"/>
<path class="st23" d="M16.1,18.6c0.7,0,1.5,0,2.2,0c0.1,0,0.2,0,0.3,0c-0.1,0.1-0.2,0.1-0.3,0.1c-0.6,0-1.3,0-1.9,0
	c-0.3,0-0.3,0-0.3,0.3c0,0.4,0,0.8,0,1.1l0,0c0,0,0,0,0,0C16.1,19.6,16.1,19.1,16.1,18.6z"/>
<path class="st23" d="M18.3,14.2c-0.7,0-1.5,0-2.2,0c0-0.5,0-1,0-1.5c0,0,0,0,0,0c0,0.4,0,0.8,0,1.2c0,0.3,0,0.3,0.2,0.3
	C17.1,14.1,17.7,14.1,18.3,14.2c0.1,0,0.2-0.1,0.3,0C18.5,14.2,18.4,14.1,18.3,14.2z"/>
<path class="st24" d="M16.2,20c0-0.4,0-0.8,0-1.2c0-0.1,0-0.1,0.1-0.1c0.7,0,1.4,0,2.1,0c-0.1,0.1-0.1,0-0.2,0c-0.6,0-1.2,0-1.7,0
	c-0.3,0-0.3,0-0.3,0.3C16.2,19.3,16.2,19.7,16.2,20C16.2,20,16.2,20,16.2,20z"/>
<path class="st24" d="M18.4,14.1c-0.6,0-1.2,0-1.8,0c-0.5,0-0.5,0-0.5-0.5c0-0.3,0-0.6,0-0.9c0,0,0,0,0,0c0,0.3,0,0.7,0,1
	c0,0.3,0,0.3,0.2,0.3c0.6,0,1.1,0,1.7,0C18.2,14,18.3,14,18.4,14.1z"/>
<path class="st25" d="M16.3,15.7c0.7,0,1.5,0,2.2,0c0,0,0,0,0,0C17.7,15.7,17,15.7,16.3,15.7C16.3,15.7,16.3,15.7,16.3,15.7z"/>
<path class="st25" d="M18.5,17.1c-0.7,0-1.5,0-2.2,0c0,0,0,0,0,0C17,17.1,17.7,17.1,18.5,17.1C18.5,17.1,18.5,17.1,18.5,17.1z"/>
<path class="st26" d="M21.2,11.1C21.2,11.1,21.2,11.1,21.2,11.1c0.6,0,1.1,0,1.7,0c0,0,0.1,0,0.1,0C22.4,11.2,21.8,11.2,21.2,11.1z"
	/>
<path class="st24" d="M23,21.7c0,0-0.1,0-0.1,0c-0.5,0-1,0-1.6,0c-0.1,0-0.1,0-0.1,0c0.1-0.1,0.2-0.1,0.3-0.1c0.4,0,0.9,0,1.3,0
	C22.8,21.6,22.9,21.6,23,21.7z"/>
<path class="st24" d="M21.1,14.1c0,0,0.1,0,0.1,0c0.5,0,1,0,1.6,0c0.1,0,0.1,0,0.1,0c-0.1,0.1-0.2,0.1-0.3,0.1c-0.4,0-0.9,0-1.3,0
	C21.3,14.1,21.2,14.1,21.1,14.1z"/>
<path class="st27" d="M21.1,18.6c0.1,0,0.1,0,0.2,0c0.5,0,1,0,1.5,0c0.1,0,0.1,0,0.2,0c0,0,0,0,0,0c-0.3,0-0.6,0-0.9,0
	C21.8,18.7,21.5,18.7,21.1,18.6C21.1,18.6,21.1,18.6,21.1,18.6z"/>
<path class="st28" d="M21.1,14.1c0.6,0,1.2,0,1.8,0c0,0,0,0,0,0C22.4,14.2,21.8,14.2,21.1,14.1C21.2,14.1,21.2,14.1,21.1,14.1z"/>
<path class="st28" d="M21.1,18.6c0.6,0,1.2,0,1.8,0c0,0.1-0.1,0-0.1,0c-0.5,0-1,0-1.6,0C21.2,18.7,21.2,18.7,21.1,18.6z"/>
<path class="st29" d="M21.2,20.1c0-0.1,0.1,0,0.1,0c0.5,0,1.1,0,1.6,0c0,0,0.1,0,0.1,0C22.4,20.2,21.8,20.2,21.2,20.1z"/>
<path class="st30" d="M21.2,20.1c0.6,0,1.2,0,1.8,0c0,0,0,0,0,0c0,0-0.1,0-0.1,0c-0.1,0-0.1,0-0.2,0c-0.4,0-0.8,0-1.1,0
	c-0.1,0-0.1,0-0.2,0C21.3,20.1,21.2,20.1,21.2,20.1C21.1,20.1,21.1,20.1,21.2,20.1z"/>
<path class="st30" d="M21.1,12.6c0,0,0.1,0,0.1,0c0.1,0,0.1,0,0.2,0c0.4,0,0.8,0,1.2,0c0.1,0,0.1,0,0.2,0c0,0,0.1,0,0.1,0
	c0,0,0,0,0,0c0,0-0.1,0-0.1,0c-0.5,0-1.1,0-1.6,0C21.2,12.7,21.2,12.7,21.1,12.6C21.1,12.6,21.1,12.6,21.1,12.6z"/>
<path class="st25" d="M22.9,17.1c-0.6,0-1.2,0-1.7,0c0,0,0,0,0,0C21.8,17.1,22.4,17.1,22.9,17.1C22.9,17.1,22.9,17.1,22.9,17.1z"/>
<path class="st31" d="M21.1,12.7c0.6,0,1.2,0,1.8,0c0,0.1-0.1,0-0.2,0c-0.5,0-1,0-1.5,0C21.2,12.7,21.2,12.7,21.1,12.7z"/>
<path class="st25" d="M21.2,15.7c0.6,0,1.2,0,1.7,0c0,0,0,0,0,0C22.4,15.7,21.8,15.7,21.2,15.7C21.2,15.7,21.2,15.7,21.2,15.7z"/>
<path class="st32" d="M22.9,21.6c0,0,0.1,0,0.1,0c0,0,0,0,0,0C22.9,21.6,22.9,21.6,22.9,21.6c-0.5,0.1-1.1,0.1-1.6,0.1
	c0,0-0.1,0-0.1,0c0,0,0,0,0,0c0.1,0,0.1,0,0.2,0C21.8,21.5,22.3,21.6,22.9,21.6z"/>
<path class="st33" d="M21.1,21.6c0.6,0,1.2,0,1.8,0c0,0,0,0,0,0C22.4,21.7,21.8,21.7,21.1,21.6C21.1,21.6,21.1,21.6,21.1,21.6z"/>
<path class="st34" d="M21.2,11.1c0.6,0,1.2,0,1.8,0c0,0,0,0,0,0c-0.1,0-0.1,0-0.2,0c-0.5,0-1,0-1.5,0C21.3,11.2,21.2,11.2,21.2,11.1
	C21.2,11.2,21.2,11.2,21.2,11.1z"/>
<path class="st27" d="M21.2,14.1c0.6,0,1.2,0,1.8,0c0,0,0,0,0,0c-0.1,0-0.1,0-0.2,0c-0.5,0-1,0-1.5,0C21.3,14.2,21.2,14.2,21.2,14.1
	C21.2,14.1,21.2,14.1,21.2,14.1z"/>
<path class="st35" d="M19.1,14.7c0,0.1,0,0.2,0,0.3c0,0,0,0,0,0C19.1,14.9,19.1,14.8,19.1,14.7C19.1,14.7,19.1,14.7,19.1,14.7z"/>
<path class="st35" d="M19.1,17.7c0,0.1,0,0.2,0,0.3c0,0,0,0,0,0C19.1,17.9,19.1,17.8,19.1,17.7C19.1,17.7,19.1,17.7,19.1,17.7z"/>
<path class="st36" d="M19.1,12c0-0.1,0-0.2,0-0.3C19.1,11.9,19.1,11.9,19.1,12z"/>
<ellipse class="st35" cx="20.5" cy="11.9" rx="0" ry="0.2"/>
<path class="st37" d="M20.6,14.7c0,0.1,0,0.2,0,0.3c0,0,0,0,0,0C20.5,14.9,20.5,14.8,20.6,14.7C20.5,14.7,20.5,14.7,20.6,14.7z"/>
<path class="st37" d="M20.5,18c0-0.1,0-0.2,0-0.3c0,0,0,0,0,0C20.5,17.8,20.5,17.9,20.5,18C20.5,18,20.5,18,20.5,18z"/>
<ellipse class="st36" cx="19.1" cy="20.9" rx="0" ry="0.2"/>
<path class="st35" d="M20.5,21c0-0.1,0-0.2,0-0.2C20.6,20.8,20.6,20.9,20.5,21z"/>
<path class="st38" d="M22.8,15.6c-0.5,0-1,0-1.5,0c0,0,0,0,0,0C21.8,15.6,22.3,15.6,22.8,15.6C22.8,15.6,22.8,15.6,22.8,15.6z"/>
<path class="st18" d="M21.3,14.2c0.5,0,1,0,1.5,0c-0.1,0.1-0.2,0-0.2,0c-0.4,0-0.7,0-1.1,0C21.4,14.2,21.4,14.2,21.3,14.2z"/>
<path class="st38" d="M21.3,17.2c0.5,0,1,0,1.5,0c0,0,0,0,0,0C22.3,17.2,21.8,17.2,21.3,17.2C21.3,17.2,21.3,17.2,21.3,17.2z"/>
<path class="st18" d="M22.8,18.6c-0.5,0-1,0-1.5,0c0.1-0.1,0.2,0,0.3,0c0.4,0,0.7,0,1.1,0C22.7,18.6,22.8,18.5,22.8,18.6z"/>
<path class="st10" d="M21.3,20.1c0.5,0,1,0,1.6,0c0,0,0,0,0,0c-0.3,0-0.6,0-0.8,0C21.8,20.2,21.5,20.2,21.3,20.1
	C21.3,20.2,21.3,20.1,21.3,20.1z"/>
<path class="st17" d="M21.3,20.2c0.5,0,1,0,1.6,0C22.3,20.2,21.8,20.2,21.3,20.2z"/>
<path class="st10" d="M22.9,21.6c-0.5,0-1,0-1.6,0c0.1-0.1,0.1,0,0.2,0c0.4,0,0.8,0,1.2,0C22.7,21.5,22.8,21.5,22.9,21.6z"/>
<path class="st17" d="M21.3,12.6c0,0,0.1,0,0.1,0c0.5,0,0.9,0,1.4,0c0,0,0.1,0,0.1,0c-0.3,0-0.6,0-1,0
	C21.7,12.6,21.5,12.6,21.3,12.6z"/>
<path class="st10" d="M21.3,12.6c0.5,0,1.1,0,1.6,0c0,0,0,0,0,0C22.3,12.6,21.8,12.6,21.3,12.6C21.3,12.6,21.3,12.6,21.3,12.6z"/>
<path class="st10" d="M21.3,11.2c0.5,0,1,0,1.5,0c-0.1,0.1-0.1,0-0.2,0c-0.4,0-0.8,0-1.1,0C21.4,11.2,21.4,11.2,21.3,11.2z"/>
</svg>
