<?xml version="1.0" encoding="utf-8"?>
<!-- Generator: Adobe Illustrator 25.0.1, SVG Export Plug-In . SVG Version: 6.00 Build 0)  -->
<svg version="1.1" id="Camada_1" xmlns="http://www.w3.org/2000/svg" xmlns:xlink="http://www.w3.org/1999/xlink" x="0px" y="0px"
	 viewBox="0 0 93 32" style="enable-background:new 0 0 93 32;" xml:space="preserve">
<style type="text/css">
	.st0{fill:#0F1418;}
	.st1{fill:#4CAD33;}
	.st2{fill:url(#SVGID_1_);}
	.st3{fill:#FFFFFF;}
	.st4{font-family:'ArialMT';}
	.st5{font-size:14.7976px;}
</style>
<path class="st0" d="M88,0H31v32h57c2.8,0,5-2.2,5-5V5C93,2.2,90.8,0,88,0z"/>
<path class="st1" d="M31,0H5C2.2,0,0,2.2,0,5v22c0,2.8,2.2,5,5,5h26V0z"/>
<g>
	
		<linearGradient id="SVGID_1_" gradientUnits="userSpaceOnUse" x1="46.5" y1="758" x2="46.5" y2="790" gradientTransform="matrix(1 0 0 1 0 -758)">
		<stop  offset="0" style="stop-color:#BBBBBB;stop-opacity:0.1"/>
		<stop  offset="1" style="stop-color:#000000;stop-opacity:0.1"/>
	</linearGradient>
	<path class="st2" d="M88,0H5C2.2,0,0,2.2,0,5v22c0,2.8,2.2,5,5,5h83c2.8,0,5-2.2,5-5V5C93,2.2,90.8,0,88,0z"/>
</g>
<text transform="matrix(1.1155 0 0 1 43.8086 20.6836)" class="st3 st4 st5">Excel</text>
<image style="overflow:visible;enable-background:new    ;" width="610" height="572" xlink:href="FBE9FBE0.jpg"  transform="matrix(0.9999 0 0 0.9999 -7886 -7796)">
</image>
<image style="overflow:visible;enable-background:new    ;" width="1200" height="630" xlink:href="732220.png"  transform="matrix(3.914894e-02 0 0 3.914894e-02 -8 4)">
</image>
</svg>
